# Blender 4.1.0
# www.blender.org
mtllib placeholder_guy.mtl
o Cube
v 1.000000 1.000000 -1.000000
v 1.000000 -1.000000 -1.000000
v 1.000000 1.000000 1.000000
v 1.000000 -1.000000 1.000000
v -1.000000 1.000000 -1.000000
v -1.000000 -1.000000 -1.000000
v -1.000000 1.000000 1.000000
v -1.000000 -1.000000 1.000000
v 0.625024 2.388766 0.625024
v -0.625024 2.388766 0.625024
v 0.625024 2.388766 -0.625024
v -0.625024 2.388766 -0.625024
v -0.590402 -0.590402 2.217898
v -0.590402 0.590402 2.217898
v 0.590402 0.590402 2.217898
v 0.590402 -0.590402 2.217898
v 1.000000 -1.000000 -1.000000
v -1.000000 -1.000000 -1.000000
v 1.000000 1.000000 -1.000000
v -1.000000 1.000000 -1.000000
v 0.655217 -0.655217 -2.180442
v -0.655217 -0.655217 -2.180442
v 0.655217 0.655217 -2.180442
v -0.655217 0.655217 -2.180442
v -1.000000 -1.000000 0.000000
v 1.000000 -1.000000 0.000000
v 0.900097 -3.763067 -1.803494
v -1.099903 -3.763067 -1.803494
v 0.900097 -3.763067 -0.803494
v -1.099903 -3.763067 -0.803494
v -0.998134 -3.817732 0.707190
v -0.998134 -3.817732 1.707190
v 1.001866 -3.817732 1.707190
v 1.001866 -3.817732 0.707190
vn -0.0000 0.2607 -0.9654
vn -0.0000 -0.9478 0.3188
vn -1.0000 -0.0000 -0.0000
vn 1.0000 -0.0000 -0.0000
vn -0.0000 1.0000 -0.0000
vn -0.0000 0.2607 0.9654
vn -0.9654 0.2607 -0.0000
vn 0.9654 0.2607 -0.0000
vn -0.0000 -0.0000 1.0000
vn -0.0000 0.9478 0.3188
vn 0.9478 -0.0000 0.3188
vn -0.9478 -0.0000 0.3188
vn -0.9599 -0.0000 -0.2804
vn -0.0000 -0.9599 -0.2804
vn -0.0000 0.9599 -0.2804
vn 0.9599 -0.0000 -0.2804
vn -0.0000 -0.0000 -1.0000
vn -0.0000 0.2792 -0.9602
vn -1.0000 -0.0007 -0.0000
vn -0.0000 0.2434 0.9699
vn -0.0000 -1.0000 -0.0000
vn -0.0000 -0.2792 0.9602
vn 0.9993 -0.0361 -0.0000
vn -0.9993 0.0361 -0.0000
vn 1.0000 0.0007 -0.0000
vn -0.0000 -0.2434 -0.9699
vt 0.625000 0.500000
vt 0.625000 0.250000
vt 0.125000 0.750000
vt 0.375000 0.750000
vt 0.375000 0.000000
vt 0.625000 0.000000
vt 0.375000 0.250000
vt 0.375000 0.125000
vt 0.375000 0.500000
vt 0.625000 0.750000
vt 0.375000 0.625000
vt 0.875000 0.500000
vt 0.875000 0.750000
vt 0.625000 1.000000
vt 0.375000 1.000000
vt 0.125000 0.500000
vt 0.125000 0.625000
s 0
usemtl Material
f 1/1/1 5/2/1 12/2/1 11/1/1
f 8/3/2 4/4/2 16/4/2 13/3/2
f 8/5/3 7/6/3 5/2/3 6/7/3 25/8/3
f 2/9/4 1/1/4 3/10/4 4/4/4 26/11/4
f 5/2/5 1/1/5 19/1/5 20/2/5
f 11/1/5 12/12/5 10/13/5 9/10/5
f 7/14/6 3/10/6 9/10/6 10/14/6
f 5/2/7 7/6/7 10/6/7 12/2/7
f 3/10/8 1/1/8 11/1/8 9/10/8
f 16/4/9 15/10/9 14/14/9 13/15/9
f 3/10/10 7/14/10 14/14/10 15/10/10
f 4/4/11 3/10/11 15/10/11 16/4/11
f 7/6/12 8/5/12 13/5/12 14/6/12
f 18/7/13 20/2/13 24/2/13 22/7/13
f 1/1/5 2/9/5 17/9/5 19/1/5
f 6/7/5 5/2/5 20/2/5 18/7/5
f 2/9/5 6/16/5 18/16/5 17/9/5
f 17/9/14 18/16/14 22/16/14 21/9/14
f 20/2/15 19/1/15 23/1/15 24/2/15
f 19/1/16 17/9/16 21/9/16 23/1/16
f 22/7/17 24/2/17 23/1/17 21/9/17
f 6/16/18 2/9/18 27/9/18 28/16/18
f 25/8/19 31/8/19 32/5/19 8/5/19
f 8/3/20 32/3/20 33/4/20 4/4/20
f 28/16/21 27/9/21 29/11/21 30/17/21
f 26/11/22 25/17/22 30/17/22 29/11/22
f 2/9/23 26/11/23 29/11/23 27/9/23
f 25/8/24 6/7/24 28/7/24 30/8/24
f 31/17/21 34/11/21 33/4/21 32/3/21
f 4/4/25 33/4/25 34/11/25 26/11/25
f 26/11/26 34/11/26 31/17/26 25/17/26
